<?xml version="1.0" standalone="no"?>
<!DOCTYPE svg PUBLIC "-//W3C//DTD SVG 20010904//EN"
 "http://www.w3.org/TR/2001/REC-SVG-20010904/DTD/svg10.dtd">
<svg version="1.0" xmlns="http://www.w3.org/2000/svg"
 width="225.000000pt" height="225.000000pt" viewBox="0 0 225.000000 225.000000"
 preserveAspectRatio="xMidYMid meet">
<metadata>
Created by potrace 1.11, written by Peter Selinger 2001-2013
</metadata>
<g transform="translate(0.000000,225.000000) scale(0.100000,-0.100000)"
fill="#000000" stroke="none">
<path d="M670 2184 c-97 -33 -190 -94 -240 -157 -22 -27 -40 -53 -40 -58 0 -4
-75 -9 -166 -11 l-166 -3 -29 -33 -29 -32 0 -925 0 -925 543 -2 c298 -2 804
-2 1125 0 l582 2 0 920 c0 666 -3 926 -11 944 -21 46 -62 56 -228 56 -83 0
-151 4 -151 8 0 5 -16 29 -35 54 -46 58 -135 121 -222 156 l-68 27 -395 2
-395 3 -75 -26z m88 -792 l2 -383 -276 3 c-262 3 -276 4 -290 23 -13 17 -14
74 -12 363 l3 344 24 19 c23 19 39 20 285 17 l261 -3 3 -383z m645 381 c8 -13
11 -146 9 -461 l-2 -302 -287 2 -288 3 0 365 c0 201 3 373 7 383 7 16 30 17
282 17 151 0 277 -3 279 -7z m638 -12 l24 -19 3 -344 c2 -268 0 -347 -10 -359
-11 -14 -51 -18 -290 -23 l-278 -7 0 379 c0 208 3 382 7 385 3 4 122 7 264 7
238 0 259 -1 280 -19z m-1024 -1337 c-3 -3 -12 -4 -19 -1 -8 3 -5 6 6 6 11 1
17 -2 13 -5z m156 -1 c-23 -2 -64 -2 -90 0 -26 2 -7 3 42 3 50 0 71 -1 48 -3z
m77 -3 c-20 -13 -33 -13 -25 0 3 6 14 10 23 10 15 0 15 -2 2 -10z m-115 -27
c-120 -3 -171 -7 -177 -16 -5 -7 -8 -8 -8 -1 0 6 3 14 7 17 3 4 83 6 177 5
l171 -2 -170 -3z"/>
<path d="M378 1588 c-37 -28 -64 -138 -35 -138 7 0 24 14 36 31 23 30 26 31
78 26 30 -3 58 -8 61 -11 3 -4 -4 -16 -15 -29 -57 -61 -142 -271 -127 -311 9
-23 40 -29 79 -16 37 12 35 8 71 155 19 80 72 191 103 219 12 11 21 31 21 47
l0 28 -67 -1 c-38 -1 -95 2 -128 6 -44 6 -64 4 -77 -6z"/>
<path d="M1022 1600 c-41 -17 -84 -150 -49 -150 7 0 24 14 36 31 22 29 27 31
73 27 62 -6 76 -19 50 -44 -26 -25 -96 -165 -115 -231 -25 -85 -3 -116 68 -93
29 10 36 18 45 53 47 182 89 286 129 319 12 11 21 30 21 47 l0 29 -92 5 c-51
3 -104 8 -118 11 -14 3 -35 1 -48 -4z"/>
<path d="M1627 1576 c-23 -25 -37 -65 -37 -107 0 -26 27 -24 41 4 7 12 17 25
23 29 16 11 70 10 102 -2 l27 -11 -20 -22 c-56 -62 -140 -259 -129 -303 3 -12
15 -26 26 -29 28 -9 88 12 94 33 2 9 14 57 26 106 25 103 70 203 106 237 14
13 24 34 24 50 0 27 0 27 -67 26 -38 -1 -96 2 -130 7 -59 8 -63 8 -86 -18z"/>
</g>
</svg>
